<svg width="25" height="25" viewBox="0 0 25 25" fill="none" xmlns="http://www.w3.org/2000/svg">
<path d="M17.8543 22.1353H7.14598C4.7814 22.1353 2.86475 20.2187 2.86475 17.8541V7.14575C2.86475 4.78117 4.7814 2.8645 7.14598 2.8645H17.8543C20.2189 2.8645 22.1356 4.78117 22.1356 7.14575V17.8541C22.1356 20.2187 20.2189 22.1353 17.8543 22.1353Z" stroke="white" stroke-width="1.5" stroke-linecap="round" stroke-linejoin="round"/>
<path d="M12.5 16.2188C14.5538 16.2188 16.2188 14.5538 16.2188 12.5C16.2188 10.4462 14.5538 8.78125 12.5 8.78125C10.4462 8.78125 8.78125 10.4462 8.78125 12.5C8.78125 14.5538 10.4462 16.2188 12.5 16.2188Z" stroke="white" stroke-width="1.5" stroke-linecap="round" stroke-linejoin="round"/>
<path d="M17.8649 8.24983C18.4575 8.24983 18.9378 7.76947 18.9378 7.17692C18.9378 6.58436 18.4575 6.104 17.8649 6.104C17.2724 6.104 16.792 6.58436 16.792 7.17692C16.792 7.76947 17.2724 8.24983 17.8649 8.24983Z" fill="white"/>
</svg>
